<?xml version="1.0" encoding="utf-8"?>
<!-- Generator: Adobe Illustrator 24.0.0, SVG Export Plug-In . SVG Version: 6.00 Build 0)  -->
<svg version="1.1" id="Layer_1" xmlns="http://www.w3.org/2000/svg" xmlns:xlink="http://www.w3.org/1999/xlink" x="0px" y="0px"
	 viewBox="0 0 841.9 595.3" style="enable-background:new 0 0 841.9 595.3;" xml:space="preserve">
<style type="text/css">
	.st0{fill:#231916;}
</style>
<g>
	<path class="st0" d="M151.1,327.5c-0.2,0.5-2.7,9.2-8.9,18.2c-5.3,7.8-10.9,15.6-19.6,15.7c-8.6,0.2-11.3-5.1-21.1-5.1
		c-9.8,0-12.9,4.9-21,5.2c-8.4,0.3-14.8-8.4-20.2-16.2c-11-15.9-19.4-44.9-8.1-64.5c5.6-9.7,15.6-15.9,26.5-16
		c8.3-0.2,16.1,5.6,21.1,5.6c5,0,14.5-6.9,24.5-5.9c4.2,0.2,15.9,1.7,23.4,12.7c-0.6,0.4-14,8.2-13.8,24.3
		C134.1,321,150.9,327.4,151.1,327.5 M117.8,254.1c4.5-5.4,7.5-12.9,6.7-20.4c-6.4,0.2-14.2,4.3-18.8,9.7
		c-4.1,4.8-7.8,12.5-6.8,19.8C106,263.7,113.3,259.5,117.8,254.1"/>
	<path class="st0" d="M241.2,337.4h-8.4l-4.6-14.5h-16l-4.4,14.5h-8.2l15.9-49.3h9.8L241.2,337.4z M226.8,316.9l-4.2-12.9
		c-0.4-1.3-1.3-4.4-2.5-9.3H220c-0.5,2.1-1.3,5.2-2.3,9.3l-4.1,12.9H226.8z"/>
	<path class="st0" d="M277.7,337.4h-6.9l-0.4-5.4h-0.1c-2.5,4.2-6.2,6.2-11.3,6.2c-3.5,0-6.3-1.1-8.4-3.3c-2.5-2.7-3.7-6.7-3.7-12.1
		v-20.9h7.9v19.5c0,6.8,2.3,10.2,7,10.2c3.5,0,6-1.7,7.3-5.1c0.3-0.9,0.5-1.9,0.5-3v-21.7h7.9v25.3
		C277.5,330.6,277.6,334,277.7,337.4"/>
	<path class="st0" d="M305.3,307.8h-8.7V325c0,4.4,1.5,6.6,4.6,6.6c1.4,0,2.6-0.1,3.5-0.3l0.2,6c-1.6,0.6-3.6,0.9-6.1,0.9
		c-3.1,0-5.6-1-7.3-2.8c-1.7-1.9-2.6-5.1-2.6-9.6v-17.9h-5.2v-5.9h5.2v-6.5l7.8-2.3v8.9h8.7V307.8z"/>
	<path class="st0" d="M342.9,337.4H335v-20.3c0-6.4-2.4-9.6-7.1-9.6c-3.6,0-6.1,1.9-7.5,5.6c-0.2,0.8-0.4,1.7-0.4,2.9v21.5H312
		v-51.9h7.9v21.4h0.1c2.5-3.9,6-5.8,10.7-5.8c3.3,0,6,1.1,8.1,3.2c2.7,2.7,4,6.7,4,11.9V337.4z"/>
	<path class="st0" d="M385.1,319.3c0,5.5-1.6,10-4.7,13.5c-3.3,3.6-7.6,5.4-13,5.4c-5.2,0-9.4-1.7-12.5-5.2
		c-3.1-3.5-4.6-7.8-4.6-13.1c0-5.5,1.6-10,4.8-13.5c3.2-3.5,7.5-5.3,12.9-5.3c5.2,0,9.4,1.7,12.6,5.2
		C383.6,309.7,385.1,314,385.1,319.3 M376.9,319.6c0-3.3-0.7-6.1-2.1-8.4c-1.7-2.8-4-4.2-7.1-4.2c-3.2,0-5.6,1.4-7.2,4.2
		c-1.4,2.3-2.1,5.2-2.1,8.5c0,3.3,0.7,6.1,2.1,8.4c1.7,2.8,4.1,4.2,7.2,4.2c3,0,5.4-1.4,7.1-4.3
		C376.2,325.7,376.9,322.9,376.9,319.6"/>
	<path class="st0" d="M411.5,308.9c-0.8-0.2-1.6-0.2-2.5-0.2c-2.8,0-4.9,1-6.4,3.1c-1.3,1.9-2,4.2-2,7v18.6h-7.9v-24.3
		c0-4.1-0.1-7.8-0.3-11.2h6.9l0.3,6.8h0.2c0.8-2.4,2.1-4.2,3.9-5.7c1.8-1.3,3.7-1.9,5.7-1.9c0.7,0,1.4,0.1,2,0.2V308.9z"/>
	<path class="st0" d="M426.4,291.3c0,1.4-0.5,2.6-1.4,3.4c-0.9,0.9-2.1,1.3-3.6,1.3c-1.3,0-2.4-0.4-3.3-1.4c-0.9-0.9-1.4-2-1.4-3.4
		c0-1.4,0.5-2.5,1.4-3.4c0.9-0.9,2.1-1.3,3.4-1.3c1.4,0,2.5,0.4,3.4,1.3C425.9,288.8,426.4,290,426.4,291.3 M425.4,337.4h-7.9v-35.5
		h7.9V337.4z"/>
	<path class="st0" d="M460.7,337.4h-28.9v-4.6l14.2-18.7c0.9-1.2,2.5-3.1,4.8-5.8h-17.6v-6.4h27.2v4.9l-13.9,18.4
		c-1.6,2-3.2,3.9-4.8,5.8h19.1V337.4z"/>
	<path class="st0" d="M495.7,318c0,1.4-0.1,2.6-0.3,3.6h-23.6c0.1,3.5,1.2,6.2,3.4,8c2,1.7,4.6,2.5,7.7,2.5c3.5,0,6.7-0.6,9.6-1.7
		l1.2,5.5c-3.4,1.5-7.3,2.2-11.9,2.2c-5.5,0-9.8-1.6-13-4.9c-3.1-3.2-4.7-7.6-4.7-13c0-5.4,1.5-9.8,4.4-13.4
		c3.1-3.8,7.2-5.7,12.4-5.7c5.1,0,9,1.9,11.6,5.7C494.6,309.8,495.7,313.6,495.7,318 M488.2,315.9c0-2.3-0.5-4.4-1.5-6.1
		c-1.4-2.2-3.4-3.3-6.3-3.3c-2.6,0-4.7,1.1-6.3,3.2c-1.3,1.7-2.1,3.8-2.3,6.1H488.2z"/>
	<path class="st0" d="M534.8,337.4h-7l-0.4-5.7h-0.2c-2.2,4.3-6,6.5-11.4,6.5c-4.3,0-7.8-1.7-10.7-5.1c-2.8-3.4-4.2-7.7-4.2-13.1
		c0-5.8,1.5-10.4,4.6-14c3-3.3,6.6-5,11-5c4.8,0,8.1,1.6,10,4.9v-20.4h7.9v42.3C534.5,331.3,534.6,334.5,534.8,337.4 M526.6,322.4
		v-5.9c0-1-0.1-1.9-0.2-2.5c-0.4-1.9-1.4-3.5-2.8-4.8c-1.5-1.3-3.2-1.9-5.3-1.9c-2.9,0-5.2,1.2-6.9,3.5c-1.7,2.3-2.5,5.3-2.5,9
		c0,3.5,0.8,6.4,2.4,8.6c1.7,2.3,4,3.5,6.9,3.5c2.6,0,4.6-1,6.2-2.9C525.8,327.1,526.6,324.9,526.6,322.4"/>
	<path class="st0" d="M595.1,337.4h-8.2c-0.8-1.5-1.8-5.4-3.2-11.7c-0.7-3.3-1.7-5.7-3.1-7c-1.4-1.3-3.4-2-6-2h-4.9v20.7h-7.9v-48.7
		c3.6-0.7,7.9-1,12.8-1c6.7,0,11.6,1.3,14.6,4c2.7,2.3,4.1,5.6,4.1,9.7c0,3-0.9,5.7-2.7,8c-1.6,2-3.7,3.5-6.3,4.5v0.1
		c3.4,1.3,5.7,4.5,6.9,9.8c1,4.1,1.7,6.9,2.1,8.5C594.1,334.9,594.6,336.6,595.1,337.4 M585.4,302.1c0-5.6-3.3-8.5-10-8.5
		c-2.5,0-4.4,0.2-5.7,0.5v16.7h5.5c3.1,0,5.6-0.8,7.4-2.4C584.5,306.8,585.4,304.7,585.4,302.1"/>
	<path class="st0" d="M630.9,318c0,1.4-0.1,2.6-0.3,3.6h-23.6c0.1,3.5,1.2,6.2,3.4,8c2,1.7,4.6,2.5,7.7,2.5c3.5,0,6.7-0.6,9.6-1.7
		l1.2,5.5c-3.4,1.5-7.3,2.2-11.9,2.2c-5.5,0-9.8-1.6-13-4.9c-3.1-3.2-4.7-7.6-4.7-13c0-5.4,1.5-9.8,4.4-13.4
		c3.1-3.8,7.2-5.7,12.4-5.7c5.1,0,9,1.9,11.6,5.7C629.9,309.8,630.9,313.6,630.9,318 M623.4,315.9c0-2.3-0.5-4.4-1.5-6.1
		c-1.4-2.2-3.4-3.3-6.3-3.3c-2.6,0-4.7,1.1-6.3,3.2c-1.3,1.7-2.1,3.8-2.3,6.1H623.4z"/>
	<path class="st0" d="M659.6,327.2c0,3.3-1.2,6-3.7,8c-2.4,2-5.8,3-10.1,3c-4,0-7.5-0.8-10.3-2.4l1.7-5.8c2.7,1.6,5.6,2.3,8.7,2.3
		c4,0,6-1.5,6-4.4c0-1.3-0.4-2.4-1.3-3.2c-0.9-0.9-2.4-1.7-4.7-2.5c-6.3-2.3-9.5-5.7-9.5-10.2c0-3.1,1.2-5.6,3.5-7.7
		c2.3-2,5.4-3.1,9.3-3.1c3.5,0,6.5,0.7,9,2.1l-1.7,5.7c-2.3-1.4-4.7-2.1-7.2-2.1c-1.6,0-2.9,0.4-3.9,1.2c-0.9,0.8-1.4,1.8-1.4,3
		c0,1.2,0.5,2.2,1.5,3c0.8,0.7,2.4,1.5,4.8,2.4C656.5,318.8,659.6,322.3,659.6,327.2"/>
	<path class="st0" d="M696.5,318c0,1.4-0.1,2.6-0.3,3.6h-23.6c0.1,3.5,1.2,6.2,3.4,8c2,1.7,4.6,2.5,7.7,2.5c3.5,0,6.7-0.6,9.6-1.7
		l1.2,5.5c-3.4,1.5-7.3,2.2-11.9,2.2c-5.5,0-9.8-1.6-13-4.9c-3.1-3.2-4.7-7.6-4.7-13c0-5.4,1.5-9.8,4.4-13.4
		c3.1-3.8,7.2-5.7,12.4-5.7c5.1,0,9,1.9,11.6,5.7C695.4,309.8,696.5,313.6,696.5,318 M689,315.9c0.1-2.3-0.5-4.4-1.5-6.1
		c-1.4-2.2-3.4-3.3-6.3-3.3c-2.6,0-4.7,1.1-6.3,3.2c-1.3,1.7-2.1,3.8-2.3,6.1H689z"/>
	<rect x="703.9" y="285.6" class="st0" width="7.9" height="51.9"/>
	<rect x="721.7" y="285.6" class="st0" width="7.9" height="51.9"/>
	<path class="st0" d="M768.7,318c0,1.4-0.1,2.6-0.3,3.6h-23.6c0.1,3.5,1.2,6.2,3.4,8c2,1.7,4.6,2.5,7.7,2.5c3.5,0,6.7-0.6,9.6-1.7
		l1.2,5.5c-3.4,1.5-7.3,2.2-11.9,2.2c-5.5,0-9.8-1.6-13-4.9c-3.1-3.2-4.7-7.6-4.7-13c0-5.4,1.5-9.8,4.4-13.4
		c3.1-3.8,7.2-5.7,12.4-5.7c5.1,0,9,1.9,11.6,5.7C767.7,309.8,768.7,313.6,768.7,318 M761.2,315.9c0.1-2.3-0.5-4.4-1.5-6.1
		c-1.4-2.2-3.4-3.3-6.3-3.3c-2.6,0-4.7,1.1-6.3,3.2c-1.3,1.7-2.1,3.8-2.3,6.1H761.2z"/>
	<path class="st0" d="M795,308.9c-0.8-0.2-1.6-0.2-2.5-0.2c-2.8,0-4.9,1-6.4,3.1c-1.3,1.9-2,4.2-2,7v18.6h-7.9v-24.3
		c0-4.1-0.1-7.8-0.3-11.2h6.9l0.3,6.8h0.2c0.8-2.4,2.1-4.2,4-5.7c1.8-1.3,3.7-1.9,5.7-1.9c0.7,0,1.4,0.1,2,0.2V308.9z"/>
</g>
</svg>
